<?xml version="1.0" encoding="UTF-8"?>
<svg width="43px" height="54px" viewBox="0 0 43 54" version="1.1" xmlns="http://www.w3.org/2000/svg" xmlns:xlink="http://www.w3.org/1999/xlink">
    <!-- Generator: Sketch 49 (51002) - http://www.bohemiancoding.com/sketch -->
    <title>boxing</title>
    <desc>Created with Sketch.</desc>
    <defs></defs>
    <g id="Page-1" stroke="none" stroke-width="1" fill="none" fill-rule="evenodd">
        <g id="boxing" fill-rule="nonzero">
            <path d="M39.421,1.984 C37.603,0.636 35.354,0 33.092,0 L25.698,0 L17.01,0 C16.622,0 16.238,0.045 15.863,0.143 C13.96,0.644 8.453,2.659 8.453,9.197 L10.943,37 C10.943,37 14.169,39.06 19.943,40 L19.949,34.49 C19.949,31.283 22.862,28.933 26.078,29.001 C29.309,29.069 31.943,31.994 31.943,35.225 L31.943,39.999 C37.93,39.074 40.943,36.999 40.943,36.999 L42.943,9.196 C42.943,5.575 41.252,3.341 39.421,1.984 Z" id="Shape" fill="#3C9FE6"></path>
            <g id="Group" transform="translate(11.000000, 37.000000)" fill="#38454F">
                <path d="M20.943,3 L20.943,16 C26.254,15.107 28.943,13 28.943,13 L28.943,0.569 C27.61,1.252 24.944,2.382 20.943,3 Z" id="Shape"></path>
                <path d="M0.943,13 C0.943,13 4.14,14.986 8.943,16 L8.943,3 C5.041,2.365 2.309,1.22 0.943,0.543 L0.943,13 Z" id="Shape"></path>
            </g>
            <path d="M37.943,16 C37.391,16 36.943,15.553 36.943,15 C36.943,10.037 32.905,6 27.943,6 C27.391,6 26.943,5.553 26.943,5 C26.943,4.447 27.391,4 27.943,4 C34.008,4 38.943,8.935 38.943,15 C38.943,15.553 38.495,16 37.943,16 Z" id="Shape" fill="#61B1ED"></path>
            <path d="M0.943,16.701 L0.943,24.354 C0.943,25.121 1.224,25.861 1.734,26.435 L10.943,37 L8.792,12.991 C6.494,12.844 0.739,12.766 0.943,16.701 Z" id="Shape" fill="#2B87C0"></path>
            <path d="M19.949,34.49 C19.949,31.328 22.781,29 25.943,29 C29.105,29 31.943,31.443 31.943,34.605 L31.943,53 C26.961,54.15 24.638,54.198 19.943,53 L19.949,34.49 Z" id="Shape" fill="#E6E7E8"></path>
            <g id="Group" transform="translate(21.000000, 33.000000)" fill="#556080">
                <path d="M6.357,4 L8.65,1.707 C9.041,1.316 9.041,0.684 8.65,0.293 C8.259,-0.098 7.627,-0.098 7.236,0.293 L4.943,2.586 L2.65,0.293 C2.259,-0.098 1.627,-0.098 1.236,0.293 C0.845,0.684 0.845,1.316 1.236,1.707 L3.529,4 L1.236,6.293 C0.845,6.684 0.845,7.316 1.236,7.707 C1.431,7.902 1.687,8 1.943,8 C2.199,8 2.455,7.902 2.65,7.707 L4.943,5.414 L7.236,7.707 C7.431,7.902 7.687,8 7.943,8 C8.199,8 8.455,7.902 8.65,7.707 C9.041,7.316 9.041,6.684 8.65,6.293 L6.357,4 Z" id="Shape"></path>
                <path d="M8.65,10.293 C8.259,9.902 7.627,9.902 7.236,10.293 L4.943,12.586 L2.65,10.293 C2.259,9.902 1.627,9.902 1.236,10.293 C0.845,10.684 0.845,11.316 1.236,11.707 L3.529,14 L1.236,16.293 C0.845,16.684 0.845,17.316 1.236,17.707 C1.431,17.902 1.687,18 1.943,18 C2.199,18 2.455,17.902 2.65,17.707 L4.943,15.414 L7.236,17.707 C7.431,17.902 7.687,18 7.943,18 C8.199,18 8.455,17.902 8.65,17.707 C9.041,17.316 9.041,16.684 8.65,16.293 L6.357,14 L8.65,11.707 C9.04,11.316 9.04,10.684 8.65,10.293 Z" id="Shape"></path>
            </g>
        </g>
    </g>
</svg>